<svg width="14" height="13" viewBox="0 0 14 13" fill="none" xmlns="http://www.w3.org/2000/svg">
<path d="M2.5807 0.0484868C3.24132 -0.141866 3.44894 0.353052 3.65657 0.886038C3.95856 1.64745 4.29831 2.40886 4.58143 3.17027C4.65693 3.36062 4.65693 3.66518 4.58143 3.8365C4.35494 4.23624 4.05294 4.61694 3.75094 4.95958C3.52444 5.20704 3.48669 5.43546 3.67544 5.72099C4.80793 7.60548 6.35567 8.97602 8.39416 9.7755C8.69616 9.88971 8.92266 9.8326 9.11141 9.60418C9.45115 9.1854 9.80978 8.76663 10.1306 8.34785C10.3383 8.08136 10.5648 7.98618 10.8668 8.11943C11.8294 8.57627 12.792 9.03312 13.7546 9.48997C14 9.60418 14 9.8326 14 10.061C13.9623 11.5077 13.0374 12.5737 11.6029 12.8973C10.7913 13.0876 10.0363 12.9925 9.2624 12.7831C5.92155 11.8884 3.41119 9.85164 1.50483 7.01539C0.900832 6.13976 0.334586 5.24511 0.108088 4.17913C-0.212785 2.69439 0.183587 1.41902 1.25945 0.372086C1.61808 0.0104164 2.0522 -0.0466899 2.59957 0.0294511L2.5807 0.0484868Z" fill="white"/>
</svg>
