<svg width="27" height="27" viewBox="0 0 27 27" fill="none" xmlns="http://www.w3.org/2000/svg">
<path d="M26.07 13.02C26.07 20.22 20.23 26.05 13.04 26.05C5.85 26.05 0 20.22 0 13.02C0 6.3 5.09 0.77 11.62 0.07C11.7 0.07 11.77 0.05 11.85 0.05C12.24 0.01 12.63 0 13.03 0C20.23 0 26.06 5.84 26.06 13.03L26.07 13.02Z" fill="#0099C9"/>
<path d="M4.97998 13.42C4.97998 13.15 4.97998 12.88 4.97998 12.62C4.97998 12.54 4.99998 12.47 4.99998 12.39C4.99998 11.83 4.99998 11.27 5.01998 10.72C5.03998 10.11 5.01998 9.49004 5.11998 8.89004C5.43998 6.76004 7.34998 5.09004 9.49998 5.03004C11.86 4.96004 14.22 4.96004 16.58 5.03004C16.89 5.03004 17.2 5.08004 17.5 5.16004C19.61 5.67004 21.04 7.48004 21.07 9.71004C21.09 11.92 21.07 14.14 21.07 16.35C21.07 16.66 21.03 16.97 20.98 17.28C20.62 19.33 18.74 20.97 16.66 21.04C15.95 21.06 15.23 21.07 14.52 21.08C14.35 21.08 14.19 21.1 14.02 21.11H12.08C12.01 21.11 11.95 21.09 11.88 21.09C11.41 21.09 10.93 21.09 10.46 21.07C9.96998 21.05 9.46998 21.07 8.98998 20.99C6.67998 20.61 5.06998 18.72 5.03998 16.37C5.02998 15.48 5.00998 14.58 4.99998 13.69C4.99998 13.61 4.98998 13.52 4.97998 13.44V13.42ZM13.05 19.97C14.28 19.95 15.52 19.95 16.75 19.9C18.54 19.82 19.92 18.41 19.95 16.61C19.98 14.93 19.98 13.26 19.99 11.58C19.99 10.77 19.99 9.95004 19.93 9.14004C19.81 7.55004 18.45 6.24004 16.85 6.15004C16.2 6.11004 15.54 6.11004 14.89 6.11004C13.02 6.11004 11.15 6.10004 9.27998 6.16004C7.61998 6.21004 6.21998 7.68004 6.18998 9.35004C6.15998 11.48 6.16998 13.61 6.16998 15.74C6.16998 16.19 6.16998 16.64 6.22998 17.08C6.41998 18.58 7.75998 19.83 9.26998 19.89C10.53 19.95 11.8 19.95 13.06 19.97H13.05Z" fill="white"/>
<path d="M17.2 13.03C17.2 15.31 15.33 17.17 13.05 17.17C10.76 17.17 8.90996 15.3 8.91996 13.02C8.91996 10.73 10.79 8.88 13.07 8.88C15.35 8.88 17.21 10.75 17.21 13.03H17.2ZM16.14 13.03C16.14 11.32 14.77 9.93 13.07 9.93C11.37 9.93 9.97996 11.3 9.96996 13.01C9.95996 14.7 11.35 16.11 13.05 16.11C14.75 16.11 16.14 14.74 16.15 13.03H16.14Z" fill="white"/>
<path d="M16.2999 8.8C16.2999 8.29 16.7199 7.88 17.2299 7.87C17.7399 7.87 18.1699 8.29 18.1699 8.8C18.1699 9.31 17.7499 9.73999 17.2299 9.72999C16.7099 9.72999 16.2999 9.31 16.2999 8.79V8.8Z" fill="white"/>
</svg>
