<svg width="9" height="18" viewBox="0 0 9 18" fill="none" xmlns="http://www.w3.org/2000/svg">
<path d="M6.56996 1.00001H7.35996V2.58001H7.29996C6.84996 2.58001 6.40996 2.58001 5.95996 2.60001C5.21996 2.63001 4.72996 3.10001 4.67996 3.83001C4.64996 4.26001 4.64996 4.68001 4.64996 5.09001V5.57001C4.64996 5.66001 4.64996 5.75001 4.64996 5.85001V5.98001V6.73001H7.30996L7.26996 7.16001L7.17996 8.20001H4.64996V17.04H2.60996V8.25001H0.779958V6.73001H2.60996V5.15001V3.68001C2.60996 3.08001 2.67996 2.65001 2.84996 2.27001C3.07996 1.75001 3.47996 1.42001 4.08996 1.22001C4.50996 1.08001 4.97996 1.01001 5.51996 1.01001H6.56996M6.56996 0.26001C6.21996 0.26001 5.86996 0.26001 5.50996 0.26001C4.94996 0.26001 4.38996 0.33001 3.84996 0.51001C3.07996 0.76001 2.48996 1.22001 2.15996 1.97001C1.91996 2.52001 1.84996 3.10001 1.84996 3.69001C1.84996 4.38001 1.84996 5.07001 1.84996 5.76001V5.99001H0.0199585V9.00001H1.84996V17.79H5.37996V8.95001H7.84996C7.93996 7.96001 8.01996 6.98001 8.10996 5.99001H5.37996C5.37996 5.84001 5.37996 5.72001 5.37996 5.59001C5.37996 5.02001 5.37996 4.46001 5.41996 3.89001C5.43996 3.53001 5.61996 3.37001 5.97996 3.36001C6.60996 3.33001 7.23996 3.34001 7.87996 3.34001C7.94996 3.34001 8.02996 3.34001 8.09996 3.33001V0.28001C8.03996 0.28001 7.99996 0.27001 7.94996 0.27001C7.48996 0.27001 7.01996 0.27001 6.55996 0.27001L6.56996 0.26001Z" fill="white"/>
</svg>
