<svg width="27" height="27" viewBox="0 0 27 27" fill="none" xmlns="http://www.w3.org/2000/svg">
<path d="M26.07 13.02C26.07 20.22 20.23 26.05 13.04 26.05C5.85 26.05 0 20.22 0 13.02C0 6.3 5.09 0.77 11.62 0.07C11.7 0.07 11.77 0.05 11.85 0.05C12.24 0.01 12.63 0 13.03 0C20.23 0 26.06 5.84 26.06 13.03L26.07 13.02Z" fill="#0099C9"/>
<path d="M9.5807 6.04861C10.2413 5.85826 10.4489 6.35317 10.6566 6.88616C10.9586 7.64757 11.2983 8.40898 11.5814 9.17039C11.6569 9.36074 11.6569 9.6653 11.5814 9.83662C11.3549 10.2364 11.0529 10.6171 10.7509 10.9597C10.5244 11.2072 10.4867 11.4356 10.6754 11.7211C11.8079 13.6056 13.3557 14.9761 15.3942 15.7756C15.6962 15.8898 15.9227 15.8327 16.1114 15.6043C16.4512 15.1855 16.8098 14.7667 17.1306 14.348C17.3383 14.0815 17.5648 13.9863 17.8668 14.1196C18.8294 14.5764 19.792 15.0332 20.7546 15.4901C21 15.6043 21 15.8327 21 16.0611C20.9623 17.5078 20.0374 18.5738 18.6029 18.8974C17.7913 19.0878 17.0363 18.9926 16.2624 18.7832C12.9216 17.8885 10.4112 15.8518 8.50483 13.0155C7.90083 12.1399 7.33459 11.2452 7.10809 10.1793C6.78721 8.69451 7.18359 7.41915 8.25945 6.37221C8.61808 6.01054 9.0522 5.95343 9.59957 6.02957L9.5807 6.04861Z" fill="white"/>
</svg>
