<svg width="18" height="18" viewBox="0 0 18 18" fill="none" xmlns="http://www.w3.org/2000/svg">
<path d="M0.97998 9.42004C0.97998 9.15004 0.97998 8.88004 0.97998 8.62004C0.97998 8.54004 0.99998 8.47004 0.99998 8.39004C0.99998 7.83004 0.99998 7.27004 1.01998 6.72004C1.03998 6.11004 1.01998 5.49004 1.11998 4.89004C1.43998 2.76004 3.34998 1.09004 5.49998 1.03004C7.85998 0.960039 10.22 0.960039 12.58 1.03004C12.89 1.03004 13.2 1.08004 13.5 1.16004C15.61 1.67004 17.04 3.48004 17.07 5.71004C17.09 7.92004 17.07 10.14 17.07 12.35C17.07 12.66 17.03 12.97 16.98 13.28C16.62 15.33 14.74 16.97 12.66 17.04C11.95 17.06 11.23 17.07 10.52 17.08C10.35 17.08 10.19 17.1 10.02 17.11H8.07998C8.00998 17.11 7.94998 17.09 7.87998 17.09C7.40998 17.09 6.92998 17.09 6.45998 17.07C5.96998 17.05 5.46998 17.07 4.98998 16.99C2.67998 16.61 1.06998 14.72 1.03998 12.37C1.02998 11.48 1.00998 10.58 0.99998 9.69004C0.99998 9.61004 0.98998 9.52004 0.97998 9.44004V9.42004ZM9.04998 15.97C10.28 15.95 11.52 15.95 12.75 15.9C14.54 15.82 15.92 14.41 15.95 12.61C15.98 10.93 15.98 9.26004 15.99 7.58004C15.99 6.77004 15.99 5.95004 15.93 5.14004C15.81 3.55004 14.45 2.24004 12.85 2.15004C12.2 2.11004 11.54 2.11004 10.89 2.11004C9.01998 2.11004 7.14998 2.10004 5.27998 2.16004C3.61998 2.21004 2.21998 3.68004 2.18998 5.35004C2.15998 7.48004 2.16998 9.61004 2.16998 11.74C2.16998 12.19 2.16998 12.64 2.22998 13.08C2.41998 14.58 3.75998 15.83 5.26998 15.89C6.52998 15.95 7.79998 15.95 9.05998 15.97H9.04998Z" fill="white"/>
<path d="M13.2 9.03013C13.2 11.3101 11.33 13.1701 9.04999 13.1701C6.75999 13.1701 4.90999 11.3001 4.91999 9.02013C4.91999 6.73013 6.78999 4.88013 9.06999 4.88013C11.35 4.88013 13.21 6.75013 13.21 9.03013H13.2ZM12.14 9.03013C12.14 7.32013 10.77 5.93013 9.06999 5.93013C7.36999 5.93013 5.97999 7.30013 5.96999 9.01013C5.95999 10.7001 7.34999 12.1101 9.04999 12.1101C10.75 12.1101 12.14 10.7401 12.15 9.03013H12.14Z" fill="white"/>
<path d="M12.3 4.80012C12.3 4.29012 12.72 3.88012 13.23 3.87012C13.74 3.87012 14.17 4.29012 14.17 4.80012C14.17 5.31012 13.75 5.74012 13.23 5.73012C12.71 5.73012 12.3 5.31012 12.3 4.79012V4.80012Z" fill="white"/>
</svg>
