<svg width="27" height="27" viewBox="0 0 27 27" fill="none" xmlns="http://www.w3.org/2000/svg">
<path d="M26.07 13.02C26.07 20.22 20.23 26.05 13.04 26.05C5.85 26.05 0 20.22 0 13.02C0 6.3 5.09 0.77 11.62 0.07C11.7 0.07 11.77 0.05 11.85 0.05C12.24 0.01 12.63 0 13.03 0C20.23 0 26.06 5.84 26.06 13.03L26.07 13.02Z" fill="#0099C9"/>
<path d="M3.84996 18.54H3.70996V7.51001H22.33C22.37 7.80001 22.34 18.48 22.34 18.53M4.90996 8.13001C5.10996 8.28001 5.27996 8.42001 5.44996 8.55001C6.87996 9.66001 8.30996 10.78 9.74996 11.89C10.59 12.54 11.43 13.2 12.28 13.85C12.76 14.22 13.3 14.22 13.78 13.85C13.96 13.71 14.13 13.57 14.31 13.43C16.5 11.73 18.69 10.03 20.88 8.33001C20.96 8.27001 21.04 8.20001 21.14 8.12001H4.90996V8.13001ZM10.7 13.42C8.76996 14.92 6.84996 16.41 4.90996 17.92H21.13C19.19 16.41 17.27 14.92 15.34 13.42C15.31 13.44 15.29 13.45 15.27 13.47C14.9 13.76 14.53 14.04 14.17 14.33C13.45 14.9 12.58 14.9 11.86 14.33C11.48 14.03 11.09 13.73 10.69 13.42H10.7ZM10.2 13.03C8.22996 11.5 6.27996 9.99001 4.31996 8.46001V17.6C6.27996 16.07 8.22996 14.56 10.2 13.03ZM15.85 13.03C17.82 14.56 19.77 16.07 21.73 17.6V8.46001C19.77 9.99001 17.82 11.5 15.85 13.03Z" fill="white"/>
</svg>
