<svg width="27" height="27" viewBox="0 0 27 27" fill="none" xmlns="http://www.w3.org/2000/svg">
<path d="M26.07 13.02C26.07 20.22 20.23 26.05 13.04 26.05C5.85 26.05 0 20.22 0 13.02C0 6.3 5.09 0.77 11.62 0.07C11.7 0.07 11.77 0.05 11.85 0.05C12.24 0.01 12.63 0 13.03 0C20.23 0 26.06 5.84 26.06 13.03L26.07 13.02Z" fill="#0099C9"/>
<path d="M13.9501 10.7001C13.9501 10.7001 13.9701 10.6601 13.9801 10.6401C14.3401 10.1601 14.8201 9.84005 15.3901 9.66005C15.9601 9.47005 16.5401 9.41005 17.1301 9.48005C17.9201 9.58005 18.5101 9.99005 18.9301 10.6601C19.1901 11.0901 19.3501 11.5501 19.4501 12.0401C19.5301 12.4601 19.5701 12.8801 19.5701 13.3101C19.5701 14.9201 19.5701 16.5201 19.5701 18.1301C19.5701 18.1301 19.5701 18.1401 19.5701 18.1501C19.5701 18.3101 19.5701 18.3101 19.4101 18.3101C18.6001 18.3101 17.7901 18.3101 16.9801 18.3101C16.8801 18.3101 16.8801 18.3101 16.8801 18.2101C16.8801 16.6601 16.8801 15.1001 16.8801 13.5501C16.8801 13.0901 16.7501 12.6501 16.4701 12.2801C16.1801 11.9001 15.7801 11.7401 15.3101 11.7701C14.7501 11.8001 14.3901 12.1201 14.1401 12.6001C13.9801 12.9001 13.9101 13.2101 13.9101 13.5501C13.9101 15.0601 13.9101 16.5601 13.9101 18.0701C13.9101 18.1201 13.9101 18.1601 13.9101 18.2101C13.9101 18.2501 13.8901 18.2701 13.8501 18.2701C13.7201 18.2701 13.6001 18.2701 13.4701 18.2701C12.8701 18.2701 12.2601 18.2701 11.6601 18.2701C11.5401 18.2701 11.4201 18.2701 11.3001 18.2701C11.2401 18.2701 11.2301 18.2501 11.2301 18.2001C11.2301 18.1501 11.2301 18.1101 11.2301 18.0601C11.2301 15.4401 11.2301 12.8201 11.2301 10.2001C11.2301 10.0901 11.2301 9.98005 11.2301 9.87005C11.2301 9.79005 11.2401 9.78005 11.3201 9.78005C11.4101 9.78005 11.5101 9.78005 11.6001 9.78005C12.3401 9.78005 13.0701 9.78005 13.8101 9.78005C13.8901 9.78005 13.9101 9.79005 13.9101 9.88005C13.9101 10.1301 13.9101 10.3901 13.9101 10.6401C13.9101 10.6601 13.9101 10.6801 13.9101 10.6901C13.9101 10.6901 13.9301 10.7001 13.9401 10.7101L13.9501 10.7001Z" stroke="white" stroke-width="0.75" stroke-linecap="round" stroke-linejoin="round"/>
<path d="M6.80005 14.02C6.80005 12.65 6.80005 11.28 6.80005 9.91003C6.80005 9.89003 6.80005 9.86003 6.80005 9.84003C6.80005 9.80003 6.82005 9.78003 6.86005 9.78003C6.95005 9.78003 7.04005 9.78003 7.14005 9.78003C7.89005 9.78003 8.63005 9.78003 9.38005 9.78003C9.47005 9.78003 9.48005 9.78003 9.48005 9.88003C9.48005 9.91003 9.48005 9.94003 9.48005 9.97003C9.48005 12.71 9.48005 15.44 9.48005 18.18C9.48005 18.24 9.45005 18.2734 9.39005 18.28C9.39005 18.28 9.37005 18.28 9.35005 18.28C8.54005 18.28 7.74005 18.28 6.93005 18.28C6.80005 18.28 6.80005 18.28 6.80005 18.15C6.80005 16.78 6.80005 15.4 6.80005 14.03V14.02Z" stroke="white" stroke-width="0.75" stroke-linecap="round" stroke-linejoin="round"/>
<path d="M9.70006 7.05009C9.70006 7.92009 9.00006 8.62009 8.13006 8.61009C7.29006 8.61009 6.56006 7.95009 6.56006 7.04009C6.56006 6.17009 7.26006 5.47009 8.13006 5.48009C9.01006 5.48009 9.70006 6.17009 9.70006 7.05009Z" stroke="white" stroke-width="0.75" stroke-linecap="round" stroke-linejoin="round"/>
</svg>
