<svg width="27" height="27" viewBox="0 0 27 27" fill="none" xmlns="http://www.w3.org/2000/svg">
<path d="M26.07 13.02C26.07 20.22 20.23 26.05 13.04 26.05C5.85 26.05 0 20.22 0 13.02C0 6.3 5.09 0.77 11.62 0.07C11.7 0.07 11.77 0.05 11.85 0.05C12.24 0.01 12.63 0 13.03 0C20.23 0 26.06 5.84 26.06 13.03L26.07 13.02Z" fill="#0099C9"/>
<path d="M15.57 5.00001H16.36V6.58001H16.3C15.85 6.58001 15.41 6.58001 14.96 6.60001C14.22 6.63001 13.73 7.10001 13.68 7.83001C13.65 8.26001 13.65 8.68001 13.65 9.09001V9.57001C13.65 9.66001 13.65 9.75001 13.65 9.85001V9.98001V10.73H16.31L16.27 11.16L16.18 12.2H13.65V21.04H11.61V12.25H9.78002V10.73H11.61V9.15001V7.68001C11.61 7.08001 11.68 6.65001 11.85 6.27001C12.08 5.75001 12.48 5.42001 13.09 5.22001C13.51 5.08001 13.98 5.01001 14.52 5.01001H15.57M15.57 4.26001C15.22 4.26001 14.87 4.26001 14.51 4.26001C13.95 4.26001 13.39 4.33001 12.85 4.51001C12.08 4.76001 11.49 5.22001 11.16 5.97001C10.92 6.52001 10.85 7.10001 10.85 7.69001C10.85 8.38001 10.85 9.07001 10.85 9.76001V9.99001H9.02002V13H10.85V21.79H14.38V12.95H16.85C16.94 11.96 17.02 10.98 17.11 9.99001H14.38C14.38 9.84001 14.38 9.72001 14.38 9.59001C14.38 9.02001 14.38 8.46001 14.42 7.89001C14.44 7.53001 14.62 7.37001 14.98 7.36001C15.61 7.33001 16.24 7.34001 16.88 7.34001C16.95 7.34001 17.03 7.34001 17.1 7.33001V4.28001C17.04 4.28001 17 4.27001 16.95 4.27001C16.49 4.27001 16.02 4.27001 15.56 4.27001L15.57 4.26001Z" fill="white"/>
</svg>
