<svg width="27" height="27" viewBox="0 0 27 27" fill="none" xmlns="http://www.w3.org/2000/svg">
<path d="M26.07 13.02C26.07 20.22 20.23 26.05 13.04 26.05C5.85 26.05 0 20.22 0 13.02C0 6.3 5.09 0.77 11.62 0.07C11.7 0.07 11.77 0.05 11.85 0.05C12.24 0.01 12.63 0 13.03 0C20.23 0 26.06 5.84 26.06 13.03L26.07 13.02Z" fill="#0099C9"/>
<g clip-path="url(#clip0_146_34)">
<path d="M21.8587 7.2886C21.7448 7.20686 21.594 7.21129 21.484 7.29916C21.3395 7.41496 21.1047 7.50691 20.8519 7.57775C21.5103 6.79646 21.5245 6.27469 21.5174 6.15481C21.51 6.03084 21.4396 5.92083 21.3334 5.86804C21.227 5.81491 21.1021 5.82785 21.0073 5.90074C20.2665 6.47087 19.5286 6.59109 19.0899 6.60335C18.4163 5.92083 17.5417 5.54688 16.6108 5.54688C14.6178 5.54688 12.9967 7.28656 12.9967 9.42472C12.9967 9.60863 13.0089 9.79221 13.033 9.97408C9.57904 9.93287 6.77417 6.42864 6.74522 6.39219C6.67767 6.30705 6.57539 6.26141 6.47052 6.27129C6.36566 6.28083 6.27206 6.34383 6.21963 6.44056C5.2257 8.26607 5.8909 9.86952 6.49883 10.7877C6.3914 10.7271 6.30423 10.6672 6.25212 10.6266C6.15562 10.5503 6.02664 10.5377 5.91791 10.5943C5.80952 10.6508 5.74036 10.7666 5.73811 10.8943C5.71141 12.634 6.50205 13.6305 7.24572 14.1816C7.14665 14.1717 7.04597 14.2106 6.97714 14.2899C6.89994 14.3788 6.8726 14.5045 6.90605 14.6199C7.41974 16.4001 8.68097 17.005 9.4835 17.2104C7.83339 18.5707 5.40487 18.1327 5.37817 18.1279C5.23149 18.1003 5.08675 18.1821 5.02692 18.3261C4.96741 18.4698 5.00794 18.6384 5.12631 18.7338C6.8681 20.1414 8.95148 20.453 10.4562 20.453C11.5946 20.453 12.4022 20.2746 12.4794 20.2565C20.1021 18.3438 20.3167 10.9509 20.299 9.73942C21.73 8.33044 21.9536 7.79368 21.988 7.66086C22.025 7.5202 21.9729 7.37034 21.8587 7.2886ZM19.7557 9.344C19.684 9.41382 19.6463 9.51429 19.6528 9.61749C19.673 9.94445 20.0629 17.6542 12.3376 19.5924C12.3025 19.6002 9.23165 20.2787 6.5696 18.8823C7.69444 18.8493 9.30724 18.5373 10.4308 17.2015C10.5157 17.1011 10.5363 16.9566 10.4835 16.834C10.4314 16.7125 10.3166 16.6345 10.1908 16.6345C10.1899 16.6345 10.1886 16.6345 10.1876 16.6345C10.1715 16.6454 8.4825 16.6324 7.70923 14.9312C8.0206 14.95 8.40466 14.9295 8.71056 14.7803C8.83665 14.7187 8.91095 14.5787 8.89551 14.4326C8.88007 14.2868 8.77778 14.168 8.64204 14.1377C8.55552 14.1183 6.6751 13.6731 6.41198 11.5012C6.69729 11.6334 7.06238 11.7413 7.42328 11.6831C7.54744 11.6634 7.64908 11.569 7.68414 11.4413C7.71921 11.3136 7.68093 11.176 7.58604 11.0888C7.50562 11.0145 5.73972 9.35286 6.57699 7.20959C7.486 8.21941 10.1783 10.8436 13.4402 10.6454C13.5358 10.6396 13.6242 10.5885 13.6812 10.5067C13.7378 10.425 13.7571 10.3208 13.7339 10.2224C13.6721 9.96182 13.6406 9.69344 13.6406 9.42506C13.6406 7.66222 14.9736 6.22838 16.6118 6.22838C17.413 6.22838 18.1648 6.56691 18.728 7.182C18.7872 7.24671 18.8685 7.28383 18.9535 7.28554C19.2944 7.29065 19.8548 7.24807 20.4878 6.97936C20.3051 7.22015 20.0368 7.50862 19.6421 7.83694C19.5305 7.92991 19.4897 8.08896 19.5415 8.22894C19.5932 8.36926 19.7271 8.45747 19.8667 8.44419C19.9416 8.43772 20.3237 8.4023 20.7557 8.30319C20.5196 8.57157 20.197 8.91419 19.7557 9.344Z" fill="white"/>
</g>
<defs>
<clipPath id="clip0_146_34">
<rect width="17" height="18" fill="white" transform="translate(5 4)"/>
</clipPath>
</defs>
</svg>
