<svg width="14" height="14" viewBox="0 0 14 14" fill="none" xmlns="http://www.w3.org/2000/svg">
<path d="M7.94998 5.70017C7.94998 5.70017 7.96998 5.66017 7.97998 5.64017C8.33998 5.16017 8.81998 4.84017 9.38998 4.66017C9.95998 4.47017 10.54 4.41017 11.13 4.48017C11.92 4.58017 12.51 4.99017 12.93 5.66017C13.19 6.09017 13.35 6.55017 13.45 7.04017C13.53 7.46017 13.57 7.88017 13.57 8.31017C13.57 9.92017 13.57 11.5202 13.57 13.1302C13.57 13.1302 13.57 13.1402 13.57 13.1502C13.57 13.3102 13.57 13.3102 13.41 13.3102C12.6 13.3102 11.79 13.3102 10.98 13.3102C10.88 13.3102 10.88 13.3102 10.88 13.2102C10.88 11.6602 10.88 10.1002 10.88 8.55017C10.88 8.09017 10.75 7.65017 10.47 7.28017C10.18 6.90017 9.77998 6.74017 9.30998 6.77017C8.74998 6.80017 8.38998 7.12017 8.13998 7.60017C7.97998 7.90017 7.90998 8.21017 7.90998 8.55017C7.90998 10.0602 7.90998 11.5602 7.90998 13.0702C7.90998 13.1202 7.90998 13.1602 7.90998 13.2102C7.90998 13.2502 7.88998 13.2702 7.84998 13.2702C7.71998 13.2702 7.59998 13.2702 7.46998 13.2702C6.86998 13.2702 6.25998 13.2702 5.65998 13.2702C5.53998 13.2702 5.41998 13.2702 5.29998 13.2702C5.23998 13.2702 5.22998 13.2502 5.22998 13.2002C5.22998 13.1502 5.22998 13.1102 5.22998 13.0602C5.22998 10.4402 5.22998 7.82017 5.22998 5.20017C5.22998 5.09017 5.22998 4.98017 5.22998 4.87017C5.22998 4.79017 5.23998 4.78017 5.31998 4.78017C5.40998 4.78017 5.50998 4.78017 5.59998 4.78017C6.33998 4.78017 7.06998 4.78017 7.80998 4.78017C7.88998 4.78017 7.90998 4.79017 7.90998 4.88017C7.90998 5.13017 7.90998 5.39017 7.90998 5.64017C7.90998 5.66017 7.90998 5.68017 7.90998 5.69017C7.90998 5.69017 7.92998 5.70017 7.93998 5.71017L7.94998 5.70017Z" stroke="white" stroke-width="0.75" stroke-linecap="round" stroke-linejoin="round"/>
<path d="M0.799957 9.02003C0.799957 7.65003 0.799957 6.28003 0.799957 4.91003C0.799957 4.89003 0.799957 4.86003 0.799957 4.84003C0.799957 4.80003 0.819957 4.78003 0.859957 4.78003C0.949957 4.78003 1.03996 4.78003 1.13996 4.78003C1.88996 4.78003 2.62996 4.78003 3.37996 4.78003C3.46996 4.78003 3.47996 4.78003 3.47996 4.88003C3.47996 4.91003 3.47996 4.94003 3.47996 4.97003C3.47996 7.71003 3.47996 10.44 3.47996 13.18C3.47996 13.24 3.44996 13.2734 3.38996 13.28C3.38996 13.28 3.36996 13.28 3.34996 13.28C2.53996 13.28 1.73996 13.28 0.929957 13.28C0.799957 13.28 0.799957 13.28 0.799957 13.15C0.799957 11.78 0.799957 10.4 0.799957 9.03003V9.02003Z" stroke="white" stroke-width="0.75" stroke-linecap="round" stroke-linejoin="round"/>
<path d="M3.69997 2.05009C3.69997 2.92009 2.99997 3.62009 2.12997 3.61009C1.28997 3.61009 0.559967 2.95009 0.559967 2.04009C0.559967 1.17009 1.25997 0.470086 2.12997 0.480086C3.00997 0.480086 3.69997 1.17009 3.69997 2.05009Z" stroke="white" stroke-width="0.75" stroke-linecap="round" stroke-linejoin="round"/>
</svg>
