<svg width="20" height="12" viewBox="0 0 20 12" fill="none" xmlns="http://www.w3.org/2000/svg">
<path d="M0.849961 11.54H0.709961V0.51001H19.33C19.37 0.80001 19.34 11.48 19.34 11.53M1.90996 1.13001C2.10996 1.28001 2.27996 1.42001 2.44996 1.55001C3.87996 2.66001 5.30996 3.78001 6.74996 4.89001C7.58996 5.54001 8.42996 6.20001 9.27996 6.85001C9.75996 7.22001 10.3 7.22001 10.78 6.85001C10.96 6.71001 11.13 6.57001 11.31 6.43001C13.5 4.73001 15.69 3.03001 17.88 1.33001C17.96 1.27001 18.04 1.20001 18.14 1.12001H1.90996V1.13001ZM7.69996 6.42001C5.76996 7.92001 3.84996 9.41001 1.90996 10.92H18.13C16.19 9.41001 14.27 7.92001 12.34 6.42001C12.31 6.44001 12.29 6.45001 12.27 6.47001C11.9 6.76001 11.53 7.04001 11.17 7.33001C10.45 7.90001 9.57996 7.90001 8.85996 7.33001C8.47996 7.03001 8.08996 6.73001 7.68996 6.42001H7.69996ZM7.19996 6.03001C5.22996 4.50001 3.27996 2.99001 1.31996 1.46001V10.6C3.27996 9.07001 5.22996 7.56001 7.19996 6.03001ZM12.85 6.03001C14.82 7.56001 16.77 9.07001 18.73 10.6V1.46001C16.77 2.99001 14.82 4.50001 12.85 6.03001Z" fill="white"/>
</svg>
