<?xml version="1.0" encoding="UTF-8" standalone="no"?><!DOCTYPE svg PUBLIC "-//W3C//DTD SVG 1.1//EN" "http://www.w3.org/Graphics/SVG/1.1/DTD/svg11.dtd"><svg width="100%" height="100%" viewBox="0 0 100 100" version="1.1" xmlns="http://www.w3.org/2000/svg" xmlns:xlink="http://www.w3.org/1999/xlink" xml:space="preserve" xmlns:serif="http://www.serif.com/" style="fill-rule:evenodd;clip-rule:evenodd;stroke-linejoin:round;stroke-miterlimit:2;"><path d="M37.356,30.618c0.736,0.03 1.55,0.064 2.323,1.783c0.528,1.175 1.418,3.365 2.126,5.111c0.522,1.286 0.946,2.331 1.056,2.55c0.258,0.516 0.43,1.119 0.086,1.808c-0.052,0.103 -0.099,0.2 -0.145,0.293c-0.259,0.528 -0.449,0.916 -0.886,1.428c-0.172,0.201 -0.349,0.417 -0.527,0.632c-0.356,0.434 -0.712,0.867 -1.022,1.176c-0.517,0.514 -1.055,1.074 -0.453,2.106c0.602,1.033 2.674,4.411 5.742,7.147c3.296,2.939 6.159,4.182 7.614,4.813c0.285,0.124 0.516,0.224 0.686,0.309c1.032,0.516 1.634,0.431 2.236,-0.259c0.603,-0.689 2.579,-3.013 3.268,-4.045c0.688,-1.033 1.376,-0.861 2.322,-0.517c0.946,0.344 6.021,2.841 7.053,3.357c0.201,0.101 0.389,0.192 0.563,0.276c0.721,0.348 1.207,0.582 1.415,0.929c0.258,0.431 0.258,2.497 -0.602,4.907c-0.86,2.41 -5.074,4.734 -6.967,4.906c-0.182,0.017 -0.363,0.038 -0.549,0.06c-1.749,0.205 -3.956,0.465 -11.836,-2.642c-9.696,-3.824 -16.089,-13.299 -17.409,-15.256c-0.109,-0.161 -0.183,-0.271 -0.222,-0.323l-0.011,-0.015c-0.557,-0.744 -4.203,-5.617 -4.203,-10.66c-0,-4.753 2.336,-7.244 3.411,-8.391c0.073,-0.078 0.141,-0.15 0.202,-0.216c0.945,-1.033 2.063,-1.291 2.752,-1.291l0.113,-0c0.649,-0.001 1.296,-0.001 1.864,0.024Z" style="fill:#fff;fill-rule:nonzero;"/><path d="M14.25,70.25c-3.667,-6.25 -5.583,-13.333 -5.583,-20.667c-0,-22.75 18.583,-41.25 41.333,-41.25c11.083,0 21.417,4.334 29.25,12.084c7.75,7.833 12.083,18.166 12.083,29.25c0,22.75 -18.583,41.25 -41.333,41.25c-6.917,-0 -13.75,-1.667 -19.75,-5l-21.917,5.75l5.917,-21.417Zm6.667,-2.333l0.833,1.25l-3.5,12.666l13,-3.416l1.25,0.75c5.25,3.166 11.333,4.833 17.5,4.833c18.917,0 34.333,-15.417 34.333,-34.333c0,-9.167 -3.583,-17.834 -10.083,-24.334c-6.417,-6.416 -15.083,-10 -24.25,-10c-18.917,0 -34.333,15.334 -34.333,34.334c-0,6.416 1.833,12.75 5.25,18.25Z" style="fill:#fff;"/></svg>